<mxfile host="Electron" agent="Mozilla/5.0 (Windows NT 10.0; Win64; x64) AppleWebKit/537.36 (KHTML, like Gecko) draw.io/26.2.2 Chrome/134.0.6998.178 Electron/35.1.2 Safari/537.36" version="26.2.2">
  <diagram name="Page-1" id="WnoX7NDdl1p5ezowS7Ov">
    <mxGraphModel dx="1345" dy="3042" grid="1" gridSize="10" guides="1" tooltips="1" connect="1" arrows="1" fold="1" page="1" pageScale="1" pageWidth="850" pageHeight="1100" math="0" shadow="0">
      <root>
        <mxCell id="0" />
        <mxCell id="1" parent="0" />
        <mxCell id="LXqvsvPm-LMyxPlo609D-1" value="Data Flow Diagram" style="text;html=1;align=center;verticalAlign=middle;whiteSpace=wrap;rounded=0;fontSize=30;fontStyle=1" parent="1" vertex="1">
          <mxGeometry x="10" y="-2180" width="290" height="30" as="geometry" />
        </mxCell>
        <mxCell id="LXqvsvPm-LMyxPlo609D-2" value="" style="rounded=0;whiteSpace=wrap;html=1;dashed=1;fillColor=none;" parent="1" vertex="1">
          <mxGeometry x="30" y="-2070" width="140" height="400" as="geometry" />
        </mxCell>
        <mxCell id="LXqvsvPm-LMyxPlo609D-3" value="Sources" style="rounded=0;whiteSpace=wrap;html=1;fontSize=24;strokeColor=none;" parent="1" vertex="1">
          <mxGeometry x="40" y="-2080" width="120" height="20" as="geometry" />
        </mxCell>
        <mxCell id="LXqvsvPm-LMyxPlo609D-14" style="edgeStyle=orthogonalEdgeStyle;rounded=0;orthogonalLoop=1;jettySize=auto;html=1;" parent="1" source="LXqvsvPm-LMyxPlo609D-4" target="LXqvsvPm-LMyxPlo609D-12" edge="1">
          <mxGeometry relative="1" as="geometry" />
        </mxCell>
        <mxCell id="LXqvsvPm-LMyxPlo609D-15" style="edgeStyle=orthogonalEdgeStyle;rounded=0;orthogonalLoop=1;jettySize=auto;html=1;entryX=0;entryY=0.5;entryDx=0;entryDy=0;" parent="1" source="LXqvsvPm-LMyxPlo609D-4" target="LXqvsvPm-LMyxPlo609D-11" edge="1">
          <mxGeometry relative="1" as="geometry" />
        </mxCell>
        <mxCell id="LXqvsvPm-LMyxPlo609D-16" style="edgeStyle=orthogonalEdgeStyle;rounded=0;orthogonalLoop=1;jettySize=auto;html=1;entryX=0;entryY=0.5;entryDx=0;entryDy=0;" parent="1" source="LXqvsvPm-LMyxPlo609D-4" target="LXqvsvPm-LMyxPlo609D-13" edge="1">
          <mxGeometry relative="1" as="geometry" />
        </mxCell>
        <mxCell id="LXqvsvPm-LMyxPlo609D-4" value="&lt;font style=&quot;font-size: 20px;&quot;&gt;CRM&lt;/font&gt;" style="image;aspect=fixed;html=1;points=[];align=center;fontSize=12;image=img/lib/azure2/general/Folder_Blank.svg;" parent="1" vertex="1">
          <mxGeometry x="71.66" y="-1968" width="58.34" height="47.35" as="geometry" />
        </mxCell>
        <mxCell id="LXqvsvPm-LMyxPlo609D-20" style="edgeStyle=orthogonalEdgeStyle;rounded=0;orthogonalLoop=1;jettySize=auto;html=1;entryX=0;entryY=0.5;entryDx=0;entryDy=0;" parent="1" source="LXqvsvPm-LMyxPlo609D-5" target="LXqvsvPm-LMyxPlo609D-18" edge="1">
          <mxGeometry relative="1" as="geometry" />
        </mxCell>
        <mxCell id="LXqvsvPm-LMyxPlo609D-21" style="edgeStyle=orthogonalEdgeStyle;rounded=0;orthogonalLoop=1;jettySize=auto;html=1;entryX=0;entryY=0.5;entryDx=0;entryDy=0;" parent="1" source="LXqvsvPm-LMyxPlo609D-5" target="LXqvsvPm-LMyxPlo609D-17" edge="1">
          <mxGeometry relative="1" as="geometry" />
        </mxCell>
        <mxCell id="LXqvsvPm-LMyxPlo609D-22" style="edgeStyle=orthogonalEdgeStyle;rounded=0;orthogonalLoop=1;jettySize=auto;html=1;entryX=0;entryY=0.5;entryDx=0;entryDy=0;" parent="1" source="LXqvsvPm-LMyxPlo609D-5" target="LXqvsvPm-LMyxPlo609D-19" edge="1">
          <mxGeometry relative="1" as="geometry" />
        </mxCell>
        <mxCell id="LXqvsvPm-LMyxPlo609D-5" value="&lt;font style=&quot;font-size: 20px;&quot;&gt;ERP&lt;/font&gt;" style="image;aspect=fixed;html=1;points=[];align=center;fontSize=12;image=img/lib/azure2/general/Folder_Blank.svg;" parent="1" vertex="1">
          <mxGeometry x="71.66" y="-1810" width="56.68" height="46" as="geometry" />
        </mxCell>
        <mxCell id="LXqvsvPm-LMyxPlo609D-8" value="" style="rounded=0;whiteSpace=wrap;html=1;strokeColor=#d79b00;dashed=1;fillColor=#ffe6cc;fillStyle=hatch;" parent="1" vertex="1">
          <mxGeometry x="220" y="-2070" width="140" height="400" as="geometry" />
        </mxCell>
        <mxCell id="LXqvsvPm-LMyxPlo609D-9" value="&lt;b&gt;Bronze Layer&lt;/b&gt;" style="rounded=0;whiteSpace=wrap;html=1;fillColor=#ffe6cc;strokeColor=#d79b00;fontSize=20;" parent="1" vertex="1">
          <mxGeometry x="220" y="-2120" width="140" height="40" as="geometry" />
        </mxCell>
        <mxCell id="boOD3r4Vv0UloX2b0zfh-11" style="edgeStyle=orthogonalEdgeStyle;rounded=0;orthogonalLoop=1;jettySize=auto;html=1;entryX=0;entryY=0.5;entryDx=0;entryDy=0;" parent="1" source="LXqvsvPm-LMyxPlo609D-11" target="boOD3r4Vv0UloX2b0zfh-5" edge="1">
          <mxGeometry relative="1" as="geometry" />
        </mxCell>
        <mxCell id="LXqvsvPm-LMyxPlo609D-11" value="&lt;b&gt;&lt;font style=&quot;font-size: 14px;&quot;&gt;CRM_sales_details&lt;/font&gt;&lt;/b&gt;" style="rounded=0;whiteSpace=wrap;html=1;fillColor=#ffe6cc;strokeColor=#d79b00;fontSize=20;" parent="1" vertex="1">
          <mxGeometry x="226.25" y="-2010" width="127.5" height="30" as="geometry" />
        </mxCell>
        <mxCell id="boOD3r4Vv0UloX2b0zfh-12" style="edgeStyle=orthogonalEdgeStyle;rounded=0;orthogonalLoop=1;jettySize=auto;html=1;entryX=0;entryY=0.5;entryDx=0;entryDy=0;" parent="1" source="LXqvsvPm-LMyxPlo609D-12" target="boOD3r4Vv0UloX2b0zfh-6" edge="1">
          <mxGeometry relative="1" as="geometry" />
        </mxCell>
        <mxCell id="LXqvsvPm-LMyxPlo609D-12" value="&lt;b&gt;&lt;font style=&quot;font-size: 14px;&quot;&gt;CRM_cust_info&lt;/font&gt;&lt;/b&gt;" style="rounded=0;whiteSpace=wrap;html=1;fillColor=#ffe6cc;strokeColor=#d79b00;fontSize=20;" parent="1" vertex="1">
          <mxGeometry x="226.25" y="-1960" width="127.5" height="30" as="geometry" />
        </mxCell>
        <mxCell id="boOD3r4Vv0UloX2b0zfh-13" style="edgeStyle=orthogonalEdgeStyle;rounded=0;orthogonalLoop=1;jettySize=auto;html=1;entryX=0;entryY=0.5;entryDx=0;entryDy=0;" parent="1" source="LXqvsvPm-LMyxPlo609D-13" target="boOD3r4Vv0UloX2b0zfh-7" edge="1">
          <mxGeometry relative="1" as="geometry" />
        </mxCell>
        <mxCell id="LXqvsvPm-LMyxPlo609D-13" value="&lt;b&gt;&lt;font style=&quot;font-size: 14px;&quot;&gt;CRM_prd_info&lt;/font&gt;&lt;/b&gt;" style="rounded=0;whiteSpace=wrap;html=1;fillColor=#ffe6cc;strokeColor=#d79b00;fontSize=20;" parent="1" vertex="1">
          <mxGeometry x="226.25" y="-1910" width="127.5" height="30" as="geometry" />
        </mxCell>
        <mxCell id="boOD3r4Vv0UloX2b0zfh-14" style="edgeStyle=orthogonalEdgeStyle;rounded=0;orthogonalLoop=1;jettySize=auto;html=1;entryX=0;entryY=0.5;entryDx=0;entryDy=0;" parent="1" source="LXqvsvPm-LMyxPlo609D-17" target="boOD3r4Vv0UloX2b0zfh-8" edge="1">
          <mxGeometry relative="1" as="geometry" />
        </mxCell>
        <mxCell id="LXqvsvPm-LMyxPlo609D-17" value="&lt;b&gt;&lt;font style=&quot;font-size: 14px;&quot;&gt;ERP_cust_az12&lt;/font&gt;&lt;/b&gt;" style="rounded=0;whiteSpace=wrap;html=1;fillColor=#ffe6cc;strokeColor=#d79b00;fontSize=20;" parent="1" vertex="1">
          <mxGeometry x="226.25" y="-1852" width="127.5" height="30" as="geometry" />
        </mxCell>
        <mxCell id="boOD3r4Vv0UloX2b0zfh-15" style="edgeStyle=orthogonalEdgeStyle;rounded=0;orthogonalLoop=1;jettySize=auto;html=1;entryX=0;entryY=0.5;entryDx=0;entryDy=0;" parent="1" source="LXqvsvPm-LMyxPlo609D-18" target="boOD3r4Vv0UloX2b0zfh-9" edge="1">
          <mxGeometry relative="1" as="geometry" />
        </mxCell>
        <mxCell id="LXqvsvPm-LMyxPlo609D-18" value="&lt;b&gt;&lt;font style=&quot;font-size: 14px;&quot;&gt;ERP_loc_a101&lt;/font&gt;&lt;/b&gt;" style="rounded=0;whiteSpace=wrap;html=1;fillColor=#ffe6cc;strokeColor=#d79b00;fontSize=20;" parent="1" vertex="1">
          <mxGeometry x="226.25" y="-1802" width="127.5" height="30" as="geometry" />
        </mxCell>
        <mxCell id="boOD3r4Vv0UloX2b0zfh-16" style="edgeStyle=orthogonalEdgeStyle;rounded=0;orthogonalLoop=1;jettySize=auto;html=1;entryX=0;entryY=0.5;entryDx=0;entryDy=0;" parent="1" source="LXqvsvPm-LMyxPlo609D-19" target="boOD3r4Vv0UloX2b0zfh-10" edge="1">
          <mxGeometry relative="1" as="geometry" />
        </mxCell>
        <mxCell id="LXqvsvPm-LMyxPlo609D-19" value="&lt;span style=&quot;font-size: 14px;&quot;&gt;&lt;b&gt;ERP_px_cat_g1v2&lt;/b&gt;&lt;/span&gt;" style="rounded=0;whiteSpace=wrap;html=1;fillColor=#ffe6cc;strokeColor=#d79b00;fontSize=20;" parent="1" vertex="1">
          <mxGeometry x="226.25" y="-1752" width="127.5" height="30" as="geometry" />
        </mxCell>
        <mxCell id="boOD3r4Vv0UloX2b0zfh-3" value="" style="rounded=0;whiteSpace=wrap;html=1;strokeColor=#666666;dashed=1;fillColor=#f5f5f5;fillStyle=hatch;fontColor=#333333;" parent="1" vertex="1">
          <mxGeometry x="420" y="-2070" width="140" height="400" as="geometry" />
        </mxCell>
        <mxCell id="boOD3r4Vv0UloX2b0zfh-4" value="&lt;b&gt;Silver Layer&lt;/b&gt;" style="rounded=0;whiteSpace=wrap;html=1;fillColor=#f5f5f5;strokeColor=#666666;fontSize=20;fontColor=#333333;" parent="1" vertex="1">
          <mxGeometry x="420" y="-2120" width="140" height="40" as="geometry" />
        </mxCell>
        <mxCell id="boOD3r4Vv0UloX2b0zfh-5" value="&lt;b&gt;&lt;font style=&quot;font-size: 14px;&quot;&gt;CRM_sales_details&lt;/font&gt;&lt;/b&gt;" style="rounded=0;whiteSpace=wrap;html=1;fillColor=#f5f5f5;strokeColor=#666666;fontSize=20;fontColor=#333333;" parent="1" vertex="1">
          <mxGeometry x="426.25" y="-2010" width="127.5" height="30" as="geometry" />
        </mxCell>
        <mxCell id="boOD3r4Vv0UloX2b0zfh-6" value="&lt;b&gt;&lt;font style=&quot;font-size: 14px;&quot;&gt;CRM_cust_info&lt;/font&gt;&lt;/b&gt;" style="rounded=0;whiteSpace=wrap;html=1;fillColor=#f5f5f5;strokeColor=#666666;fontSize=20;fontColor=#333333;" parent="1" vertex="1">
          <mxGeometry x="426.25" y="-1960" width="127.5" height="30" as="geometry" />
        </mxCell>
        <mxCell id="boOD3r4Vv0UloX2b0zfh-7" value="&lt;b&gt;&lt;font style=&quot;font-size: 14px;&quot;&gt;CRM_prd_info&lt;/font&gt;&lt;/b&gt;" style="rounded=0;whiteSpace=wrap;html=1;fillColor=#f5f5f5;strokeColor=#666666;fontSize=20;fontColor=#333333;" parent="1" vertex="1">
          <mxGeometry x="426.25" y="-1910" width="127.5" height="30" as="geometry" />
        </mxCell>
        <mxCell id="boOD3r4Vv0UloX2b0zfh-8" value="&lt;b&gt;&lt;font style=&quot;font-size: 14px;&quot;&gt;ERP_cust_az12&lt;/font&gt;&lt;/b&gt;" style="rounded=0;whiteSpace=wrap;html=1;fillColor=#f5f5f5;strokeColor=#666666;fontSize=20;fontColor=#333333;" parent="1" vertex="1">
          <mxGeometry x="426.25" y="-1852" width="127.5" height="30" as="geometry" />
        </mxCell>
        <mxCell id="boOD3r4Vv0UloX2b0zfh-9" value="&lt;b&gt;&lt;font style=&quot;font-size: 14px;&quot;&gt;ERP_loc_a101&lt;/font&gt;&lt;/b&gt;" style="rounded=0;whiteSpace=wrap;html=1;fillColor=#f5f5f5;strokeColor=#666666;fontSize=20;fontColor=#333333;" parent="1" vertex="1">
          <mxGeometry x="426.25" y="-1802" width="127.5" height="30" as="geometry" />
        </mxCell>
        <mxCell id="boOD3r4Vv0UloX2b0zfh-10" value="&lt;span style=&quot;font-size: 14px;&quot;&gt;&lt;b&gt;ERP_px_cat_g1v2&lt;/b&gt;&lt;/span&gt;" style="rounded=0;whiteSpace=wrap;html=1;fillColor=#f5f5f5;strokeColor=#666666;fontSize=20;fontColor=#333333;" parent="1" vertex="1">
          <mxGeometry x="426.25" y="-1752" width="127.5" height="30" as="geometry" />
        </mxCell>
        <mxCell id="cIdv_oqdzKXUpOWRJTLZ-1" value="" style="rounded=0;whiteSpace=wrap;html=1;strokeColor=#d6b656;dashed=1;fillColor=#fff2cc;fillStyle=hatch;" vertex="1" parent="1">
          <mxGeometry x="660" y="-2070" width="160" height="400" as="geometry" />
        </mxCell>
        <mxCell id="cIdv_oqdzKXUpOWRJTLZ-2" value="&lt;b&gt;Gold Layer&lt;/b&gt;" style="rounded=0;whiteSpace=wrap;html=1;fillColor=#fff2cc;strokeColor=#d6b656;fontSize=20;" vertex="1" parent="1">
          <mxGeometry x="660" y="-2120" width="160" height="40" as="geometry" />
        </mxCell>
        <mxCell id="cIdv_oqdzKXUpOWRJTLZ-3" value="&lt;b&gt;&lt;font style=&quot;font-size: 14px;&quot;&gt;fact_sales&lt;/font&gt;&lt;/b&gt;" style="rounded=0;whiteSpace=wrap;html=1;fillColor=#fff2cc;strokeColor=#d6b656;fontSize=20;" vertex="1" parent="1">
          <mxGeometry x="676.25" y="-2010" width="127.5" height="30" as="geometry" />
        </mxCell>
        <mxCell id="cIdv_oqdzKXUpOWRJTLZ-4" value="&lt;b&gt;&lt;font style=&quot;font-size: 14px;&quot;&gt;dim_customers&lt;/font&gt;&lt;/b&gt;" style="rounded=0;whiteSpace=wrap;html=1;fillColor=#fff2cc;strokeColor=#d6b656;fontSize=20;" vertex="1" parent="1">
          <mxGeometry x="676.25" y="-1900" width="127.5" height="30" as="geometry" />
        </mxCell>
        <mxCell id="cIdv_oqdzKXUpOWRJTLZ-5" value="&lt;b&gt;&lt;font style=&quot;font-size: 14px;&quot;&gt;dim_products&lt;/font&gt;&lt;/b&gt;" style="rounded=0;whiteSpace=wrap;html=1;fillColor=#fff2cc;strokeColor=#d6b656;fontSize=20;" vertex="1" parent="1">
          <mxGeometry x="676.25" y="-1794" width="127.5" height="30" as="geometry" />
        </mxCell>
        <mxCell id="cIdv_oqdzKXUpOWRJTLZ-10" value="" style="endArrow=classic;html=1;rounded=0;exitX=0.967;exitY=0.187;exitDx=0;exitDy=0;exitPerimeter=0;entryX=0;entryY=0.75;entryDx=0;entryDy=0;jumpStyle=gap;" edge="1" parent="1" source="boOD3r4Vv0UloX2b0zfh-3" target="cIdv_oqdzKXUpOWRJTLZ-3">
          <mxGeometry width="50" height="50" relative="1" as="geometry">
            <mxPoint x="570" y="-1970" as="sourcePoint" />
            <mxPoint x="620" y="-2020" as="targetPoint" />
          </mxGeometry>
        </mxCell>
        <mxCell id="cIdv_oqdzKXUpOWRJTLZ-11" value="" style="endArrow=classic;html=1;rounded=0;exitX=1;exitY=0.75;exitDx=0;exitDy=0;entryX=0;entryY=0.5;entryDx=0;entryDy=0;jumpStyle=gap;" edge="1" parent="1" source="boOD3r4Vv0UloX2b0zfh-6" target="cIdv_oqdzKXUpOWRJTLZ-4">
          <mxGeometry width="50" height="50" relative="1" as="geometry">
            <mxPoint x="580" y="-1918" as="sourcePoint" />
            <mxPoint x="630" y="-1968" as="targetPoint" />
          </mxGeometry>
        </mxCell>
        <mxCell id="cIdv_oqdzKXUpOWRJTLZ-12" value="" style="endArrow=classic;html=1;rounded=0;exitX=1;exitY=0.75;exitDx=0;exitDy=0;entryX=0;entryY=0.5;entryDx=0;entryDy=0;jumpStyle=gap;" edge="1" parent="1" source="boOD3r4Vv0UloX2b0zfh-7" target="cIdv_oqdzKXUpOWRJTLZ-5">
          <mxGeometry width="50" height="50" relative="1" as="geometry">
            <mxPoint x="580" y="-1874" as="sourcePoint" />
            <mxPoint x="702" y="-1822" as="targetPoint" />
          </mxGeometry>
        </mxCell>
        <mxCell id="cIdv_oqdzKXUpOWRJTLZ-13" value="" style="endArrow=classic;html=1;rounded=0;exitX=1;exitY=0.5;exitDx=0;exitDy=0;jumpStyle=gap;" edge="1" parent="1" source="boOD3r4Vv0UloX2b0zfh-8">
          <mxGeometry width="50" height="50" relative="1" as="geometry">
            <mxPoint x="560" y="-1841" as="sourcePoint" />
            <mxPoint x="680" y="-1885" as="targetPoint" />
          </mxGeometry>
        </mxCell>
        <mxCell id="cIdv_oqdzKXUpOWRJTLZ-14" value="" style="endArrow=classic;html=1;rounded=0;exitX=1;exitY=0.5;exitDx=0;exitDy=0;entryX=0;entryY=0.5;entryDx=0;entryDy=0;jumpStyle=gap;" edge="1" parent="1" source="boOD3r4Vv0UloX2b0zfh-9" target="cIdv_oqdzKXUpOWRJTLZ-4">
          <mxGeometry width="50" height="50" relative="1" as="geometry">
            <mxPoint x="590" y="-1752" as="sourcePoint" />
            <mxPoint x="711" y="-1744" as="targetPoint" />
          </mxGeometry>
        </mxCell>
        <mxCell id="cIdv_oqdzKXUpOWRJTLZ-15" value="" style="endArrow=classic;html=1;rounded=0;exitX=1;exitY=0.5;exitDx=0;exitDy=0;entryX=0;entryY=0.5;entryDx=0;entryDy=0;jumpStyle=gap;" edge="1" parent="1" source="boOD3r4Vv0UloX2b0zfh-10" target="cIdv_oqdzKXUpOWRJTLZ-5">
          <mxGeometry width="50" height="50" relative="1" as="geometry">
            <mxPoint x="580" y="-1730" as="sourcePoint" />
            <mxPoint x="701" y="-1722" as="targetPoint" />
          </mxGeometry>
        </mxCell>
      </root>
    </mxGraphModel>
  </diagram>
</mxfile>
